<svg width="24" height="19" viewBox="0 0 24 19" fill="none" xmlns="http://www.w3.org/2000/svg">
<path d="M23.25 17.5C22.8 17.5 22.5 17.2 22.5 16.75V7C22.5 6.55 22.8 6.25 23.25 6.25C23.7 6.25 24 6.55 24 7V16.75C24 17.2 23.7 17.5 23.25 17.5Z" fill="#FFB31F"/>
<path d="M13.05 9.49545C12.75 9.72045 12.375 9.79545 12 9.79545C11.625 9.79545 11.25 9.72045 10.95 9.49545L4.5 6.12045V14.5C4.5 16.825 8.175 19 12 19C15.825 19 19.5 16.825 19.5 14.5V6.12045L13.05 9.49545Z" fill="#394C69"/>
<path d="M0.376176 7.39815L10.6535 12.5602C11.5007 12.9857 12.4993 12.9857 13.3465 12.5602L23.6238 7.39815C23.8495 7.2531 24 7.03552 24 6.74542C24 6.45531 23.8495 6.23774 23.6238 6.09269L13.3398 0.959395C12.4962 0.538315 11.5038 0.538315 10.6602 0.959395L0.376176 6.09269C0.15047 6.23774 0 6.45531 0 6.74542C0 7.03552 0.15047 7.2531 0.376176 7.39815Z" fill="#536B92"/>
</svg>
