<svg width="24" height="22" viewBox="0 0 24 22" fill="none" xmlns="http://www.w3.org/2000/svg">
<path d="M12.68 21.1021C12.4921 21.2896 12.246 21.3831 12 21.3827C11.7551 21.3822 11.5104 21.2887 11.3235 21.1021L2.00441 11.799C0.719967 10.4949 0 8.73792 0 6.9075C0 5.07707 0.719967 3.3201 2.00441 2.01601C2.64161 1.37698 3.39864 0.869966 4.23212 0.52402C5.06561 0.178075 5.95917 0 6.8616 0C7.76403 0 8.65759 0.178075 9.49107 0.52402C10.3246 0.869966 11.0816 1.37698 11.7188 2.01601L12.0017 2.30753L12.2847 2.01601C12.9219 1.37698 13.6789 0.869966 14.5124 0.52402C15.3459 0.178075 16.2394 0 17.1419 0C18.0443 0 18.9378 0.178075 19.7713 0.52402C20.6048 0.869966 21.3618 1.37698 21.999 2.01601C23.2814 3.32117 24 5.07774 24 6.9075C24 8.73725 23.2814 10.4938 21.999 11.799L12.68 21.1021Z" fill="#F94646"/>
<path d="M12.2847 2.01601L12.0017 2.30753L12 21.3827C12.246 21.3831 12.4921 21.2896 12.68 21.1021L21.999 11.799C23.2814 10.4938 24 8.73725 24 6.9075C24 5.07774 23.2814 3.32117 21.999 2.01601C21.3618 1.37698 20.6048 0.869966 19.7713 0.52402C18.9378 0.178075 18.0443 0 17.1419 0C16.2394 0 15.3459 0.178075 14.5124 0.52402C13.6789 0.869966 12.9219 1.37698 12.2847 2.01601Z" fill="#EB3838"/>
</svg>
