<svg width="512" height="512" viewBox="0 0 512 512" fill="none" xmlns="http://www.w3.org/2000/svg">
<path d="M212.639 397.311H101.782C95.5798 397.311 90.5521 392.291 90.5521 386.099C90.5521 379.907 95.5798 374.887 101.782 374.887H212.639V397.311Z" fill="#F93C4C"/>
<path d="M279.451 163.315V367.087C279.451 387.236 269.01 397.311 248.129 397.311C225.349 397.311 213.958 387.236 213.958 367.087V163.315C213.958 156.165 217.637 152.59 224.993 152.59C233.061 152.59 237.095 156.165 237.095 163.315V367.087C237.095 372.287 240.773 374.887 248.129 374.887C253.586 374.887 256.315 372.287 256.315 367.087V163.315C256.315 156.165 260.231 152.59 268.061 152.59C275.655 152.59 279.451 156.165 279.451 163.315ZM321.452 163.315V367.087C321.452 387.236 311.011 397.311 290.129 397.311C267.587 397.311 256.315 387.236 256.315 367.087V163.315C256.315 156.165 259.875 152.59 266.993 152.59C275.299 152.59 279.451 156.165 279.451 163.315V367.087C279.451 372.287 283.011 374.887 290.129 374.887C295.587 374.887 298.316 372.287 298.316 367.087V163.315C298.316 156.165 302.35 152.59 310.418 152.59C317.774 152.59 321.452 156.165 321.452 163.315ZM237.095 360.912C237.095 385.178 226.654 397.311 205.772 397.311V374.887C211.23 374.887 213.958 370.228 213.958 360.912H237.095ZM321.452 360.262V367.412C321.452 372.395 324.181 374.887 329.639 374.887V397.311C308.757 397.095 298.316 384.745 298.316 360.262H321.452Z" fill="#F93C4C"/>
<path d="M350.656 153.279C358.249 153.279 362.046 157.179 362.046 164.978V368.1C362.046 388.034 351.249 398 329.655 398V375.575C335.113 375.575 337.842 372.65 337.842 366.8V164.978C337.842 157.179 342.113 153.279 350.656 153.279Z" fill="#F93C4C"/>
<path d="M443.658 193.252C443.658 202.352 439.624 206.902 431.556 206.902C423.013 206.902 418.742 202.244 418.742 192.927C418.742 166.494 434.641 153.278 466.438 153.278C496.811 153.278 511.998 167.253 511.998 195.202L512 391.631C512 394.768 509.453 397.311 506.311 397.311H431.558C423.015 397.311 418.744 393.736 418.744 386.586C418.744 379.653 422.66 376.078 430.49 375.862H487.44L487.438 195.202C487.676 181.119 480.675 174.078 466.438 174.078C451.489 174.078 443.895 180.469 443.658 193.252Z" fill="#F93C4C"/>
<path d="M52.6037 152.375C59.9598 152.375 63.5192 155.733 63.2819 162.45V386.911C63.5192 393.845 59.9598 397.311 52.6037 397.311C44.5358 397.311 40.5018 393.845 40.5018 386.911V162.45C40.5018 155.733 44.5358 152.375 52.6037 152.375ZM63.6378 315.495C63.6378 325.245 66.8413 330.12 73.2482 330.12V352.545C51.6546 352.545 40.8578 340.195 40.8578 315.495H63.6378Z" fill="#F93C4C"/>
<path d="M146.708 163.315V321.321C146.708 341.47 136.267 351.545 115.385 351.545C92.6051 351.545 81.2151 341.47 81.2151 321.321V163.315C81.2151 156.165 84.8931 152.59 92.2492 152.59C100.317 152.59 104.351 156.165 104.351 163.315V321.321C104.351 326.521 108.029 329.121 115.385 329.121C120.843 329.121 123.572 326.521 123.572 321.321V163.315C123.572 156.165 127.487 152.59 135.318 152.59C142.911 152.59 146.708 156.165 146.708 163.315ZM188.709 163.315V321.321C188.709 341.47 178.268 351.545 157.386 351.545C134.843 351.545 123.572 341.47 123.572 321.321V163.315C123.572 156.165 127.131 152.59 134.25 152.59C142.555 152.59 146.708 156.165 146.708 163.315V321.321C146.708 326.521 150.267 329.121 157.386 329.121C162.844 329.121 165.573 326.521 165.573 321.321V163.315C165.573 156.165 169.607 152.59 177.674 152.59C185.031 152.59 188.709 156.165 188.709 163.315ZM104.351 315.146C104.351 339.412 93.9102 351.545 73.0285 351.545V329.121C78.4862 329.121 81.2151 324.462 81.2151 315.146H104.351Z" fill="#F93C4C"/>
<path d="M19.5766 360.044C22.1868 358.094 23.4919 356.035 23.4919 353.869V164.317C23.4919 157.84 18.2331 152.589 11.746 152.589C5.25885 152.589 0 157.84 0 164.317V353.869C0 359.935 4.03397 362.968 12.1019 362.968C14.7121 362.968 17.2037 361.993 19.5766 360.044Z" fill="#F93C4C"/>
<path d="M398.177 394.386C400.787 392.436 402.092 390.378 402.092 388.211V164.955C402.092 158.478 396.833 153.227 390.346 153.227C383.859 153.227 378.6 158.478 378.6 164.955V388.211C378.6 394.278 382.634 397.311 390.702 397.311C393.312 397.311 395.804 396.336 398.177 394.386Z" fill="#F93C4C"/>
<path d="M52.6037 397.311H11.2305C5.02838 397.311 0.000602091 392.291 0.000602091 386.099C0.000602091 379.907 5.02839 374.887 11.2305 374.887H63.2819L52.6037 397.311Z" fill="#F93C4C"/>
<path d="M336.064 118.109C332.768 120.637 331.121 123.693 331.121 127.275C331.121 131.067 332.642 134.333 335.683 137.072C338.978 139.601 342.654 140.865 346.709 140.865C356.848 140.865 361.918 136.335 361.918 127.275C361.918 118.425 356.975 114 347.09 114C343.034 114 339.359 115.37 336.064 118.109Z" fill="#F93C4C"/>
<path d="M293.717 118.109C290.422 120.637 288.774 123.693 288.774 127.275C288.774 131.067 290.295 134.333 293.337 137.072C296.632 139.601 300.307 140.865 304.363 140.865C314.502 140.865 319.571 136.335 319.571 127.275C319.571 118.425 314.629 114 304.743 114C300.688 114 297.012 115.37 293.717 118.109Z" fill="#F93C4C"/>
<path d="M258.452 118.109C255.569 120.637 254.127 123.693 254.127 127.275C254.127 131.067 255.458 134.333 258.119 137.072C261.002 139.601 264.218 140.865 267.767 140.865C276.639 140.865 281.074 136.335 281.074 127.275C281.074 118.425 276.749 114 268.1 114C264.551 114 261.335 115.37 258.452 118.109Z" fill="#F93C4C"/>
<path d="M216.107 118.109C213.224 120.637 211.782 123.693 211.782 127.275C211.782 131.067 213.113 134.333 215.774 137.072C218.657 139.601 221.873 140.865 225.422 140.865C234.294 140.865 238.729 136.335 238.729 127.275C238.729 118.425 234.404 114 225.755 114C222.206 114 218.99 115.37 216.107 118.109Z" fill="#F93C4C"/>
</svg>
