<svg width="64" height="64" viewBox="0 0 64 64" fill="none" xmlns="http://www.w3.org/2000/svg">
<path d="M59.219 38.502L54.5019 35.3147V25.753L59.219 22.6295C59.474 22.4382 59.6652 22.1833 59.6652 21.8645C59.6652 21.5458 59.474 21.2271 59.219 21.0996L34.9322 4.78088C34.6134 4.58964 34.1672 4.58964 33.8485 4.78088L3.88833 24.7968C3.76084 24.8606 3.69709 24.9243 3.63335 25.0518C3.63335 25.0518 3.63335 25.0518 3.63335 25.1155C3.50586 25.3068 3.50586 25.4343 3.50586 25.6255V43.1554C3.50586 43.4741 3.69709 43.7928 3.95207 43.9203L28.2389 60.1116C28.4302 60.239 28.5576 60.3028 28.7489 60.3028C28.9401 60.3028 29.1314 60.239 29.2588 60.1116L59.2827 40.0956C59.5377 39.9044 59.729 39.6494 59.729 39.3307C59.6652 38.9482 59.474 38.6295 59.219 38.502ZM34.4222 6.75697L56.9879 21.8008L53.2907 24.2231C53.0995 24.2869 52.9082 24.4143 52.7808 24.5418L28.6851 40.6056L10.5816 28.5578C10.5178 28.494 10.4541 28.494 10.4541 28.4303L6.11941 25.5618L34.4222 6.75697ZM10.9003 31.1076L28.1114 42.5817C28.4302 42.7729 28.8764 42.7729 29.1951 42.5817L52.5895 26.9641V34.8048L28.8126 50.4861L10.9003 39.012V31.1076ZM28.6851 58.1355L5.35446 42.5817V27.4104L9.05168 29.8327V39.5219C9.05168 39.8406 9.24291 40.1594 9.49789 40.3506L28.3664 52.4622C28.4939 52.5896 28.6851 52.5896 28.8764 52.5896C29.0676 52.5896 29.2588 52.5259 29.3863 52.4622L53.227 36.7809L56.9879 39.3307L28.6851 58.1355Z" fill="#F94646"/>
<path d="M30.2787 15.49L41.6253 23.2669C41.8166 23.3944 42.0078 23.4582 42.1353 23.4582C42.454 23.4582 42.709 23.3307 42.9002 23.0119C43.219 22.5657 43.0915 21.992 42.6452 21.6733L31.3624 13.8964C30.9162 13.5777 30.3425 13.7052 30.0237 14.1514C29.705 14.5976 29.8325 15.1713 30.2787 15.49Z" fill="#F94646"/>
</svg>
