<svg width="512" height="512" viewBox="0 0 512 512" fill="none" xmlns="http://www.w3.org/2000/svg">
<path fill-rule="evenodd" clip-rule="evenodd" d="M105.712 439.602H86.9902V476.782H105.712C105.712 476.782 122.093 474.326 122.093 458.192C122.093 442.057 105.712 439.602 105.712 439.602ZM108.291 464.969C107.208 465.673 105.561 466.376 104.583 466.61C103.606 466.844 97.2872 466.61 97.2872 466.61V449.773C97.2872 449.773 103.752 449.592 104.68 449.89C105.607 450.188 107.208 450.711 108.291 451.414C110.171 452.635 111.796 454.372 111.796 458.192C111.796 462.011 110.171 463.748 108.291 464.969Z" fill="#06609F"/>
<path fill-rule="evenodd" clip-rule="evenodd" d="M130.284 476.782H117.881L132.858 439.602H145.027L159.303 476.782H147.836L146.198 473.157H131.688L130.284 476.782ZM138.942 454.45L135.432 463.336H142.921L138.942 454.45Z" fill="#06609F"/>
<path d="M160.941 476.782V439.602H171.238L185.513 459.127V439.602H195.576V476.782H185.513L171.238 457.256V476.782H160.941Z" fill="#06609F"/>
<path d="M224.126 439.602H197.214V476.782H245.188C249.635 476.782 255.719 467.779 248.933 460.764L238.402 449.773H251.507V439.602H234.423C230.445 439.602 222.956 445.798 228.807 454.45L240.508 466.844H207.745L207.511 463.336H224.126V453.047H207.511V449.773H224.126V439.602Z" fill="#06609F"/>
<path d="M309.544 460.764C316.33 467.779 310.246 476.782 305.8 476.782H287.078V466.844H301.119L289.418 454.45C283.1 446.266 291.056 439.602 295.035 439.602H312.118V449.773H299.013L309.544 460.764Z" fill="#06609F"/>
<path d="M253.613 439.602V476.782H263.91V463.102H275.143V476.782H285.44V439.602H275.143V452.813H263.91V439.602H253.613Z" fill="#06609F"/>
<path fill-rule="evenodd" clip-rule="evenodd" d="M338.329 439.602H326.16L311.182 476.782H323.585L324.989 473.157H339.499L341.137 476.782H352.604L338.329 439.602ZM328.734 463.336L332.244 454.45L336.223 463.336H328.734Z" fill="#06609F"/>
<path fill-rule="evenodd" clip-rule="evenodd" d="M396.366 439.602H408.535L422.81 476.782H411.343L409.705 473.157H395.196L393.792 476.782H371.326L364.539 470.117V476.782H354.476V439.602H372.496C375.07 439.602 383.963 441.355 385.414 451.878C386.931 462.879 376.24 466.844 376.24 466.844H385.414L396.366 439.602ZM398.706 463.336L402.436 453.983L406.663 463.336H398.706ZM364.773 451.176V456.555H371.326C371.326 456.555 373.666 456.321 373.666 453.749C373.666 451.176 371.326 451.176 371.326 451.176H364.773Z" fill="#06609F"/>
<path fill-rule="evenodd" clip-rule="evenodd" d="M255.5 411.417V383.831L418.613 295.679V146.359L254.9 236.31L94.7862 149.022V235.111C94.7862 235.111 102.582 247.104 102.582 255.5C102.582 261.793 98.0805 266.894 91.7878 266.894C85.4951 266.894 81.5933 261.793 81.5932 255.5C81.5932 247.104 89.3891 235.111 89.3891 235.111V146.08L69 134.965L253.101 34.2188V62.4036L119.973 134.965L252.502 210.524L413.815 120.572L442 137.363V310.671L255.5 411.417Z" fill="#0762A2"/>
<path d="M153.555 204.527L129.567 191.334V270.492L254.3 339.455L380.233 270.492V191.934L355.646 204.527V256.699L254.3 311.27L153.555 255.5V204.527Z" fill="#00BACF"/>
</svg>
