<svg width="19" height="24" viewBox="0 0 19 24" fill="none" xmlns="http://www.w3.org/2000/svg">
<path d="M6.26076 8.34782H12.5216L13.5651 24L9.3912 21.913L5.21729 24L6.26076 8.34782Z" fill="#FF5252"/>
<path d="M13.565 24L12.5215 8.34782H9.39111V21.913L13.565 24Z" fill="#E93E3E"/>
<path d="M9.3913 0L11.713 2.24598L14.9114 1.79358L15.4695 4.97525L18.323 6.48923L16.9043 9.3913L18.323 12.2934L15.4695 13.8074L14.9114 16.989L11.713 16.5366L9.3913 18.7826L7.06965 16.5366L3.87123 16.989L3.31312 13.8074L0.459643 12.2934L1.87826 9.3913L0.459643 6.48923L3.31312 4.97525L3.87123 1.79358L7.06965 2.24598L9.3913 0Z" fill="#FFC149"/>
<path d="M14.9116 1.79358L11.7131 2.24598L7.06982 16.5366L9.39148 18.7826L11.7131 16.5366L14.9116 16.989L15.4697 13.8074L18.3231 12.2934L16.9045 9.39131L18.3231 6.48923L15.4697 4.97525L14.9116 1.79358Z" fill="#EEAF35"/>
</svg>
