<svg width="20" height="20" viewBox="0 0 20 20" fill="none" xmlns="http://www.w3.org/2000/svg">
<path d="M19.995 3.92313C19.2594 4.25 18.4694 4.47063 17.6388 4.56875C18.4856 4.06125 19.1363 3.2575 19.4431 2.3C18.65 2.76938 17.7725 3.11188 16.8381 3.295C16.0894 2.49813 15.0231 2 13.8425 2C11.5769 2 9.74125 3.83625 9.74125 6.10187C9.74125 6.42312 9.77687 6.73688 9.84687 7.03688C6.4375 6.86563 3.415 5.2325 1.39125 2.75063C1.03875 3.35688 0.83625 4.06125 0.83625 4.81312C0.83625 6.23688 1.56062 7.49188 2.66062 8.22813C1.98875 8.20625 1.35625 8.0225 0.803125 7.715C0.8025 7.73188 0.8025 7.75 0.8025 7.76625C0.8025 9.75437 2.21625 11.4125 4.09313 11.7894C3.74938 11.8825 3.38688 11.9331 3.0125 11.9331C2.7475 11.9331 2.49125 11.9075 2.24125 11.86C2.7625 13.4887 4.27812 14.675 6.0725 14.7087C4.66937 15.8087 2.90063 16.4656 0.97875 16.4656C0.6475 16.4656 0.320625 16.4462 0 16.4081C1.815 17.5706 3.97125 18.25 6.28812 18.25C13.8331 18.25 17.96 11.9994 17.96 6.57812C17.96 6.40062 17.955 6.22313 17.9475 6.04688C18.7494 5.46875 19.4444 4.74688 19.995 3.92313Z" fill="#55ACEE"/>
</svg>
